<svg xmlns="http://www.w3.org/2000/svg" xmlns:xlink="http://www.w3.org/1999/xlink" width="500" zoomAndPan="magnify" viewBox="0 0 375 374.999991" height="500" preserveAspectRatio="xMidYMid meet" version="1.0"><defs><clipPath id="95e36f1abe"><path d="M 31.023438 44.0625 L 343 44.0625 L 343 331.3125 L 31.023438 331.3125 Z M 31.023438 44.0625 " clip-rule="nonzero"/></clipPath></defs><rect x="-37.5" width="450" fill="#ffffff" y="-37.499999" height="449.999989" fill-opacity="1"/><rect x="-37.5" width="450" fill="#ffffff" y="-37.499999" height="449.999989" fill-opacity="1"/><rect x="-37.5" width="450" fill="#f6f6e9" y="-37.499999" height="449.999989" fill-opacity="1"/><g clip-path="url(#95e36f1abe)"><path fill="#ed5b2d" d="M 137.757812 44.0625 L 199.300781 44.0625 C 238.808594 44.0625 274.519531 60.300781 300.605469 86.183594 C 326.691406 112.320312 342.644531 148.101562 342.644531 187.6875 C 342.644531 227.273438 326.4375 263.050781 300.605469 289.1875 C 274.519531 315.324219 238.808594 331.3125 199.300781 331.3125 L 127.375 331.3125 L 127.375 289.695312 L 65.070312 289.695312 C 55.953125 289.695312 47.597656 285.890625 41.519531 279.800781 C 35.441406 273.710938 31.640625 265.335938 31.640625 256.199219 C 31.640625 247.066406 35.441406 238.691406 41.519531 232.601562 C 47.597656 226.511719 55.953125 222.703125 65.070312 222.703125 L 127.375 222.703125 L 127.375 197.835938 L 87.863281 197.835938 C 72.414062 197.835938 58.488281 191.492188 48.101562 181.34375 C 37.972656 171.191406 31.640625 156.980469 31.640625 141.503906 C 31.640625 126.023438 37.972656 112.066406 48.101562 101.664062 C 58.234375 91.511719 72.414062 85.167969 87.863281 85.167969 L 127.375 85.167969 L 127.375 43.554688 L 137.757812 43.554688 Z M 127.375 268.886719 L 187.648438 268.886719 C 197.273438 268.886719 206.136719 264.828125 212.46875 258.484375 C 218.800781 252.140625 222.851562 243.257812 222.851562 233.617188 C 222.851562 223.972656 218.800781 215.09375 212.46875 208.75 C 206.136719 202.402344 197.273438 198.34375 187.648438 198.34375 L 148.140625 198.34375 L 148.140625 244.273438 L 65.070312 244.273438 C 61.527344 244.273438 58.488281 245.796875 56.207031 247.828125 C 53.925781 250.109375 52.40625 253.15625 52.40625 256.707031 C 52.40625 260.261719 53.925781 263.304688 55.953125 265.589844 C 58.234375 267.871094 61.273438 269.140625 64.816406 269.140625 L 127.121094 269.140625 Z M 148.140625 289.695312 L 148.140625 310.503906 L 199.300781 310.503906 C 232.984375 310.503906 263.628906 296.800781 285.914062 274.46875 C 308.203125 252.140625 321.878906 221.4375 321.878906 187.6875 C 321.878906 153.9375 308.203125 123.234375 285.914062 100.902344 C 263.628906 78.570312 232.984375 64.871094 199.300781 64.871094 L 148.140625 64.871094 L 148.140625 85.675781 L 210.445312 85.675781 C 219.5625 85.675781 227.917969 89.484375 233.996094 95.574219 C 240.074219 101.664062 243.875 110.039062 243.875 119.171875 C 243.875 128.308594 240.074219 136.683594 233.996094 142.773438 C 227.917969 148.863281 219.5625 152.667969 210.445312 152.667969 L 148.140625 152.667969 L 148.140625 177.535156 L 187.648438 177.535156 C 203.097656 177.535156 217.027344 183.878906 227.410156 194.03125 C 237.542969 204.179688 243.875 218.390625 243.875 233.871094 C 243.875 249.347656 237.542969 263.304688 227.410156 273.710938 C 217.28125 283.859375 203.097656 290.203125 187.648438 290.203125 L 148.140625 290.203125 Z M 148.140625 106.484375 L 87.863281 106.484375 C 78.242188 106.484375 69.375 110.546875 63.046875 116.890625 C 56.714844 123.234375 52.660156 132.113281 52.660156 141.757812 C 52.660156 151.398438 56.714844 160.28125 63.046875 166.625 C 69.375 172.96875 78.242188 177.027344 87.863281 177.027344 L 127.375 177.027344 L 127.375 131.097656 L 210.445312 131.097656 C 213.988281 131.097656 217.027344 129.578125 219.308594 127.546875 C 221.585938 125.261719 222.851562 122.21875 222.851562 118.664062 C 222.851562 115.113281 221.332031 112.066406 219.308594 109.785156 C 217.027344 107.5 213.988281 106.230469 210.445312 106.230469 L 148.140625 106.230469 Z M 148.140625 106.484375 " fill-opacity="1" fill-rule="nonzero"/></g></svg>